<svg version="1.2" xmlns="http://www.w3.org/2000/svg" viewBox="0 0 157 118" width="157" height="118"><path fill="#FFFFFF" d="m19.8 117h-0.1q-5.1 0-9.3-2.4-4-2.6-6.6-6.6-2.4-4.2-2.4-9.2v-50.6q0-5 2.4-9 2.6-4.2 6.6-6.7 4.2-2.5 9.3-2.5h58.1v-28.5h12.3v115.5zm0-12.3h52.2q2.4 0 4-1.7 1.8-1.7 1.8-4.2v-50.6q0-2.4-1.8-4.1-1.6-1.8-4-1.8h-52.2q-2.4 0-4.2 1.8-1.7 1.7-1.7 4.1v50.6q0 2.5 1.7 4.2 1.8 1.7 4.2 1.7zm104.3 12.3q-5.1 0-9.3-2.4-4-2.6-6.4-6.6-2.4-4.2-2.4-9.2v-97.3h12.3v28.5h37.6v12.3h-37.6v56.5q0 2.4 1.7 4.2 1.7 1.7 4.1 1.7h31.9v12.3z"/></svg>