<svg version="1.2" xmlns="http://www.w3.org/2000/svg" viewBox="0 0 670 118" width="670" height="118"><path fill="#ED1C24" d="m19.8 117h-0.1q-5.1 0-9.3-2.4-4-2.6-6.6-6.6-2.4-4.2-2.4-9.2v-50.6q0-5 2.4-9 2.6-4.2 6.6-6.7 4.2-2.5 9.3-2.5h58.1v-28.5h12.3v115.5zm0-12.3h52.2q2.4 0 4-1.7 1.8-1.7 1.8-4.2v-50.6q0-2.4-1.8-4.1-1.6-1.8-4-1.8h-52.2q-2.4 0-4.2 1.8-1.7 1.7-1.7 4.1v50.6q0 2.5 1.7 4.2 1.8 1.7 4.2 1.7zm98.3 12.3h-12.3v-87h12.3zm0-103.2h-12.3v-12.3h12.3zm36.3 103.2q-4.9 0-9.2-2.4-4-2.5-6.6-6.6-2.4-4.2-2.4-9.2v-1.1h12.3v1.1q0 2.5 1.7 4.3 1.8 1.6 4.2 1.6h52.2q2.4 0 4-1.6 1.8-1.8 1.8-4.3v-13.3q0-2.4-1.8-4-1.6-1.8-4-1.8h-52.2q-4.9 0-9.2-2.4-4-2.6-6.6-6.6-2.4-4.2-2.4-9.2v-13.3q0-5 2.4-9 2.6-4.2 6.6-6.6 4.3-2.6 9.2-2.6h52.2q5.1 0 9.1 2.5 4.2 2.5 6.7 6.7 2.5 4 2.5 9v1.2h-12.5v-1.2q0-2.4-1.8-4.1-1.6-1.8-4-1.8h-52.2q-2.4 0-4.2 1.8-1.7 1.7-1.7 4.1v13.3q0 2.4 1.7 4.2 1.8 1.6 4.2 1.6h52.2q5.1 0 9.1 2.6 4.2 2.4 6.7 6.6 2.5 4.1 2.5 9v13.3q0 5-2.5 9.2-2.5 4-6.7 6.6-4 2.4-9.1 2.4zm100.5 0q-5 0-9.2-2.4-4-2.6-6.6-6.6-2.4-4.2-2.4-9.2v-50.6q0-5 2.4-9 2.6-4.2 6.6-6.7 4.2-2.5 9.2-2.5h70.2v12.3h-70.2q-2.4 0-4.2 1.8-1.7 1.7-1.7 4.1v50.6q0 2.5 1.7 4.2 1.8 1.7 4.2 1.7h70.5v12.3zm99.3 0h-12.3v-68.8q0-5 2.4-9 2.5-4.3 6.6-6.7 4.2-2.5 9.1-2.5h48.9v12.3h-48.9q-2.4 0-4.2 1.8-1.6 1.6-1.6 4.1zm152.3 0h-70.5q-4.9 0-9.1-2.5-4.1-2.5-6.7-6.5-2.3-4.3-2.3-9.2v-31.5h76.2l-0.1-19.2q0-2.4-1.8-4-1.6-1.9-4-1.9h-70.3v-12.2h70.3q5.1 0 9.2 2.5 4.2 2.4 6.5 6.6 2.6 4.1 2.6 9zm-70.5-12.3h58l0.1-25h-63.9v19.2q0 2.4 1.6 4.2 1.8 1.6 4.2 1.6zm98.4 12.3h-12.2v-115.5h12.2v65.8l24 0.1 34.3-37.4h16.1v0.2l-39.4 43.3 39.3 43.4v0.1h-16l-34.3-37.3h-24zm102.8 0q-5.2 0-9.4-2.4-4-2.6-6.4-6.6-2.4-4.2-2.4-9.2v-97.3h12.3v28.5h37.6v12.3h-37.6v56.5q0 2.4 1.6 4.2 1.9 1.7 4.3 1.7h31.7v12.3z"/></svg>